<?xml version="1.0" encoding="utf-8"?>
<!-- Generator: Adobe Illustrator 16.0.0, SVG Export Plug-In . SVG Version: 6.00 Build 0)  -->
<!DOCTYPE svg PUBLIC "-//W3C//DTD SVG 1.1//EN" "http://www.w3.org/Graphics/SVG/1.1/DTD/svg11.dtd">
<svg version="1.1" id="Layer_1" xmlns="http://www.w3.org/2000/svg" xmlns:xlink="http://www.w3.org/1999/xlink" x="0px" y="0px"
	 width="388.909px" height="383.739px" viewBox="0 0 388.909 383.739" enable-background="new 0 0 388.909 383.739"
	 xml:space="preserve">
<path fill-rule="evenodd" clip-rule="evenodd" fill="#FFFFFF" d="M0,179.724c0.997-5.699,2.117-11.379,2.966-17.1
	c2.164-14.585,6.345-28.635,12.187-42.082c7.117-16.384,16.095-31.857,27.416-45.691C57.047,57.156,74.05,42.146,93.777,30.404
	c16.335-9.722,33.476-17.786,52.073-21.914c12.083-2.682,24.452-4.288,36.776-5.595c7.614-0.807,15.388,0.015,23.083-0.185
	c14.444-0.375,28.313,3.057,42.097,6.542c19.594,4.954,37.74,13.567,54.504,24.726c15.254,10.154,28.807,22.33,40.903,36.268
	c10.387,11.968,19.283,24.832,26.362,38.871c9.522,18.887,16.249,38.849,18.253,59.991c1.387,14.624,2.661,29.442,1.807,44.046
	c-1.017,17.354-5.078,34.301-11.146,50.854c-9.028,24.634-22.311,46.282-39.856,65.736c-15.474,17.156-33.589,30.625-53.79,41.321
	c-9.136,4.836-19.026,8.313-28.744,11.957c-6.837,2.564-13.105-2.151-13.118-9.382c-0.032-17.994,0.28-35.995-0.128-53.979
	c-0.219-9.624-1.621-19.254-6.412-27.908c-1.554-2.808-3.722-5.276-5.927-8.341c9.025-1.975,17.563-3.616,25.983-5.731
	c18.622-4.677,34.823-13.467,46.249-29.368c7.518-10.462,12.324-22.289,14.104-35.062c1.224-8.783,1.773-17.694,2.041-26.567
	c0.564-18.624-5.683-34.917-17.545-49.22c-1.032-1.245-1.438-3.8-0.953-5.386c4.29-14.033,3.126-27.858-1.107-41.617
	c-2.238-7.277-3.779-7.765-11.302-6.346c-15.078,2.844-27.966,10.401-40.918,17.976c-1.457,0.852-3.568,1.2-5.252,0.948
	c-10.973-1.642-21.896-3.594-32.86-5.291c-20.57-3.18-40.495,1.268-60.501,5.071c-2.326,0.442-5.439-0.445-7.478-1.792
	c-10.408-6.871-21.661-11.896-33.375-15.942c-2.586-0.893-5.475-0.901-8.22-1.351c-4.78-0.785-7.134,0.776-8.62,5.906
	c-4.111,14.193-5.538,28.203-1.146,42.577c0.498,1.628-0.329,4.283-1.481,5.693c-8.457,10.343-14.272,21.983-16.032,35.171
	c-3.169,23.753-0.81,46.791,10.804,68.321c7.99,14.811,20.129,25.247,35.516,31.061c12.99,4.906,26.747,7.783,40.41,11.627
	c-0.004,0.02,0.091,1.069-0.384,1.527c-5.544,5.351-8.171,12.22-9.456,19.487c-0.807,4.565-3.853,6.302-7.323,7.179
	c-10.893,2.752-21.805,4.377-32.74-0.464c-8.346-3.695-14.456-9.826-18.849-17.375c-6.45-11.081-15.801-17.638-27.978-20.635
	c-0.947-0.233-2.114-0.375-2.966-0.032c-2.428,0.974-4.746,2.221-7.107,3.36c1.517,1.936,2.676,4.394,4.61,5.72
	c10.992,7.536,19.057,17.239,23.833,29.768c5.913,15.509,17.834,24.75,33.557,27.665c9.123,1.691,18.888-0.075,28.364-0.31
	c1.308-0.033,2.611-0.209,4.59-0.375c0,9.37,0,18.476,0,27.58c0,1.165,0,2.332,0,3.498c0,10.854-6.891,15.943-16.914,11.384
	c-14.51-6.601-28.952-13.524-42.734-21.501c-13.417-7.766-25.071-18.161-35.52-29.644c-18.115-19.905-32.001-42.377-40.955-67.937
	c-5.22-14.901-8.908-29.994-9.927-45.743c-0.034-0.525-0.609-1.017-0.933-1.524C0,203.72,0,191.722,0,179.724z"/>
</svg>
